# xmcd
#
# Track frame offsets:
#	150
#	10611
#	26999
#	41340
#	60520
#	77575
#	94479
#	107872
#	119650
#	132354
#	147660
#
# Disc length: 2231 seconds
#
# Revision: 0
# Processed by: cddbd v1.5.2PL0 Copyright (c) Steve Scherf et al.
# Submitted via: EasyCDDAExtractor 10.0.2.1
#
DISCID=9908b50b
DTITLE=Varios [CD celeste) - Profesorado en Ritmos Caribeños
DYEAR=1900
DGENRE=
TTITLE0=Mambo Perez Prado
TTITLE1=Mambo 5
TTITLE2=Mambo Lou
TTITLE3=Oye como va (cha cha cha)
TTITLE4=Dimelo (cha cha cha)
TTITLE5=Esta cosquillita (cha cha cha)
TTITLE6=Seleccion Wawancó (cumbia)
TTITLE7=Los domingos (cumbia)
TTITLE8=Cosita linda (cumbia)
TTITLE9=Canto da ciudade (samba)
TTITLE10=Timbalada (samba)
EXTD=
EXTT0=
EXTT1=
EXTT2=
EXTT3=
EXTT4=
EXTT5=
EXTT6=
EXTT7=
EXTT8=
EXTT9=
EXTT10=
PLAYORDER=
